<svg xmlns="http://www.w3.org/2000/svg" width="39" height="39"><g data-name="Group 1" transform="translate(-284 -249)" fill="#0b0f11"><circle data-name="Ellipse 1" cx="2" cy="2" r="2" transform="translate(284 249)"/><circle data-name="Ellipse 23" cx="2" cy="2" r="2" transform="translate(284 259)"/><circle data-name="Ellipse 2" cx="2" cy="2" r="2" transform="translate(289 249)"/><circle data-name="Ellipse 21" cx="2" cy="2" r="2" transform="translate(289 259)"/><circle data-name="Ellipse 3" cx="2" cy="2" r="2" transform="translate(294 249)"/><circle data-name="Ellipse 19" cx="2" cy="2" r="2" transform="translate(294 259)"/><circle data-name="Ellipse 4" cx="2" cy="2" r="2" transform="translate(299 249)"/><circle data-name="Ellipse 16" cx="2" cy="2" r="2" transform="translate(299 259)"/><circle data-name="Ellipse 5" cx="2" cy="2" r="2" transform="translate(304 249)"/><circle data-name="Ellipse 17" cx="2" cy="2" r="2" transform="translate(304 259)"/><circle data-name="Ellipse 6" cx="2" cy="2" r="2" transform="translate(309 249)"/><circle data-name="Ellipse 18" cx="2" cy="2" r="2" transform="translate(309 259)"/><circle data-name="Ellipse 7" cx="2" cy="2" r="2" transform="translate(284 254)"/><circle data-name="Ellipse 24" cx="2" cy="2" r="2" transform="translate(284 264)"/><circle data-name="Ellipse 8" cx="2" cy="2" r="2" transform="translate(289 254)"/><circle data-name="Ellipse 22" cx="2" cy="2" r="2" transform="translate(289 264)"/><circle data-name="Ellipse 9" cx="2" cy="2" r="2" transform="translate(294 254)"/><circle data-name="Ellipse 20" cx="2" cy="2" r="2" transform="translate(294 264)"/><circle data-name="Ellipse 10" cx="2" cy="2" r="2" transform="translate(299 254)"/><circle data-name="Ellipse 15" cx="2" cy="2" r="2" transform="translate(299 264)"/><circle data-name="Ellipse 11" cx="2" cy="2" r="2" transform="translate(304 254)"/><circle data-name="Ellipse 14" cx="2" cy="2" r="2" transform="translate(304 264)"/><circle data-name="Ellipse 12" cx="2" cy="2" r="2" transform="translate(309 254)"/><circle data-name="Ellipse 13" cx="2" cy="2" r="2" transform="translate(309 264)"/><circle data-name="Ellipse 25" cx="2" cy="2" r="2" transform="translate(284 269)"/><circle data-name="Ellipse 26" cx="2" cy="2" r="2" transform="translate(284 279)"/><circle data-name="Ellipse 27" cx="2" cy="2" r="2" transform="translate(289 269)"/><circle data-name="Ellipse 28" cx="2" cy="2" r="2" transform="translate(289 279)"/><circle data-name="Ellipse 29" cx="2" cy="2" r="2" transform="translate(294 269)"/><circle data-name="Ellipse 30" cx="2" cy="2" r="2" transform="translate(294 279)"/><circle data-name="Ellipse 31" cx="2" cy="2" r="2" transform="translate(299 269)"/><circle data-name="Ellipse 32" cx="2" cy="2" r="2" transform="translate(299 279)"/><circle data-name="Ellipse 33" cx="2" cy="2" r="2" transform="translate(304 269)"/><circle data-name="Ellipse 34" cx="2" cy="2" r="2" transform="translate(304 279)"/><circle data-name="Ellipse 35" cx="2" cy="2" r="2" transform="translate(309 269)"/><circle data-name="Ellipse 36" cx="2" cy="2" r="2" transform="translate(309 279)"/><circle data-name="Ellipse 37" cx="2" cy="2" r="2" transform="translate(284 274)"/><circle data-name="Ellipse 38" cx="2" cy="2" r="2" transform="translate(284 284)"/><circle data-name="Ellipse 39" cx="2" cy="2" r="2" transform="translate(289 274)"/><circle data-name="Ellipse 40" cx="2" cy="2" r="2" transform="translate(289 284)"/><circle data-name="Ellipse 41" cx="2" cy="2" r="2" transform="translate(294 274)"/><circle data-name="Ellipse 42" cx="2" cy="2" r="2" transform="translate(294 284)"/><circle data-name="Ellipse 43" cx="2" cy="2" r="2" transform="translate(299 274)"/><circle data-name="Ellipse 44" cx="2" cy="2" r="2" transform="translate(299 284)"/><circle data-name="Ellipse 45" cx="2" cy="2" r="2" transform="translate(304 274)"/><circle data-name="Ellipse 46" cx="2" cy="2" r="2" transform="translate(304 284)"/><circle data-name="Ellipse 47" cx="2" cy="2" r="2" transform="translate(309 274)"/><circle data-name="Ellipse 48" cx="2" cy="2" r="2" transform="translate(309 284)"/><circle data-name="Ellipse 49" cx="2" cy="2" r="2" transform="translate(314 249)"/><circle data-name="Ellipse 50" cx="2" cy="2" r="2" transform="translate(314 259)"/><circle data-name="Ellipse 51" cx="2" cy="2" r="2" transform="translate(319 249)"/><circle data-name="Ellipse 52" cx="2" cy="2" r="2" transform="translate(319 259)"/><circle data-name="Ellipse 53" cx="2" cy="2" r="2" transform="translate(314 254)"/><circle data-name="Ellipse 54" cx="2" cy="2" r="2" transform="translate(314 264)"/><circle data-name="Ellipse 55" cx="2" cy="2" r="2" transform="translate(319 254)"/><circle data-name="Ellipse 56" cx="2" cy="2" r="2" transform="translate(319 264)"/><circle data-name="Ellipse 57" cx="2" cy="2" r="2" transform="translate(314 269)"/><circle data-name="Ellipse 58" cx="2" cy="2" r="2" transform="translate(314 279)"/><circle data-name="Ellipse 59" cx="2" cy="2" r="2" transform="translate(319 269)"/><circle data-name="Ellipse 60" cx="2" cy="2" r="2" transform="translate(319 279)"/><circle data-name="Ellipse 61" cx="2" cy="2" r="2" transform="translate(314 274)"/><circle data-name="Ellipse 62" cx="2" cy="2" r="2" transform="translate(314 284)"/><circle data-name="Ellipse 63" cx="2" cy="2" r="2" transform="translate(319 274)"/><circle data-name="Ellipse 64" cx="2" cy="2" r="2" transform="translate(319 284)"/></g></svg>